<svg width="265" height="318" viewBox="0 0 265 318" fill="none" xmlns="http://www.w3.org/2000/svg">
<path d="M131.766 315.888C117.865 319.57 102.971 316.524 90.8746 308.746C-40.5448 224.247 10.2433 94.369 10.2433 94.369C115.072 54.2442 140.465 57.4329 263.777 89.0229C263.777 89.0229 262.596 281.24 131.766 315.888Z" fill="#FF0000"/>
<path d="M133.5 8.07679C134.777 2.7036 140.168 -0.617017 145.541 0.659977L160.5 4.21514C165.874 5.49214 169.194 10.8832 167.917 16.2564L152.194 82.4137L117.777 74.2341L133.5 8.07679Z" fill="#15A912"/>
<path d="M65 176C65 181.523 62.3137 186 59 186C55.6863 186 53 181.523 53 176C53 170.477 55.6863 166 59 166C62.3137 166 65 170.477 65 176Z" fill="#D9D9D9"/>
<path d="M157 233C157 238.523 154.314 243 151 243C147.686 243 145 238.523 145 233C145 227.477 147.686 223 151 223C154.314 223 157 227.477 157 233Z" fill="#D9D9D9"/>
<path d="M110 226.5C110 236.165 107.09 244 103.5 244C99.9102 244 97 236.165 97 226.5C97 216.835 99.9102 209 103.5 209C107.09 209 110 216.835 110 226.5Z" fill="#D9D9D9"/>
<path d="M97 170C97 175.523 94.7615 180 92 180C89.2386 180 87 175.523 87 170C87 164.477 89.2386 160 92 160C94.7615 160 97 164.477 97 170Z" fill="#D9D9D9"/>
<path d="M189 227C189 232.523 186.761 237 184 237C181.239 237 179 232.523 179 227C179 221.477 181.239 217 184 217C186.761 217 189 221.477 189 227Z" fill="#D9D9D9"/>
<path d="M227 160C227 165.523 224.761 170 222 170C219.239 170 217 165.523 217 160C217 154.477 219.239 150 222 150C224.761 150 227 154.477 227 160Z" fill="#D9D9D9"/>
<path d="M129 191.5C129 197.851 126.538 203 123.5 203C120.462 203 118 197.851 118 191.5C118 185.149 120.462 180 123.5 180C126.538 180 129 185.149 129 191.5Z" fill="#D9D9D9"/>
<path d="M183 270.5C183 274.642 180.761 278 178 278C175.239 278 173 274.642 173 270.5C173 266.358 175.239 263 178 263C180.761 263 183 266.358 183 270.5Z" fill="#D9D9D9"/>
<path d="M32 145.5C32 149.642 29.7615 153 27 153C24.2386 153 22 149.642 22 145.5C22 141.358 24.2386 138 27 138C29.7615 138 32 141.358 32 145.5Z" fill="#D9D9D9"/>
<path d="M167 186.5C167 190.642 164.761 194 162 194C159.239 194 157 190.642 157 186.5C157 182.358 159.239 179 162 179C164.761 179 167 182.358 167 186.5Z" fill="#D9D9D9"/>
<path d="M195 189.5C195 196.956 192.314 203 189 203C185.686 203 183 196.956 183 189.5C183 182.044 185.686 176 189 176C192.314 176 195 182.044 195 189.5Z" fill="#D9D9D9"/>
<path d="M123 285C123 293.284 120.09 300 116.5 300C112.91 300 110 293.284 110 285C110 276.716 112.91 270 116.5 270C120.09 270 123 276.716 123 285Z" fill="#D9D9D9"/>
<path d="M53 230.5C53 237.956 50.7615 244 48 244C45.2386 244 43 237.956 43 230.5C43 223.044 45.2386 217 48 217C50.7615 217 53 223.044 53 230.5Z" fill="#D9D9D9"/>
<path d="M144 147.5C144 152.747 141.538 157 138.5 157C135.462 157 133 152.747 133 147.5C133 142.253 135.462 138 138.5 138C141.538 138 144 142.253 144 147.5Z" fill="#D9D9D9"/>
<path d="M92 112C92 121.941 87.299 130 81.5 130C75.701 130 71 121.941 71 112C71 102.059 75.701 94.0001 81.5 94.0001C87.299 94.0001 92 102.059 92 112Z" fill="#D9D9D9"/>
<path d="M233 100C233 109.941 228.299 118 222.5 118C216.701 118 212 109.941 212 100C212 90.059 216.701 82.0001 222.5 82.0001C228.299 82.0001 233 90.059 233 100Z" fill="#D9D9D9"/>
<path d="M47.7842 119.346C18.9432 99.4013 13.0744 128.974 2.00004 130C2.00004 130 1.00003 119.346 10.9149 88.5415C20.8298 57.7367 144.011 38.8697 264.496 86.8452L263.577 123.711L217.541 105.892C190.729 97.683 198.315 145.937 173.091 145.851C147.867 145.765 134.944 96.1841 104.75 97.4388C74.5556 98.6934 83.8354 144.277 47.7842 119.346Z" fill="#15A912"/>
</svg>
